<!DOCTYPE svg PUBLIC "-//W3C//DTD SVG 1.1//EN" "http://www.w3.org/Graphics/SVG/1.1/DTD/svg11.dtd">
<!-- Uploaded to: SVG Repo, www.svgrepo.com, Transformed by: SVG Repo Mixer Tools -->
<svg height="800px" width="800px" version="1.1" id="Layer_1" xmlns="http://www.w3.org/2000/svg" xmlns:xlink="http://www.w3.org/1999/xlink" viewBox="0 0 512.001 512.001" xml:space="preserve" fill="#000000">
<g id="SVGRepo_bgCarrier" stroke-width="0"/>
<g id="SVGRepo_tracerCarrier" stroke-linecap="round" stroke-linejoin="round"/>
<g id="SVGRepo_iconCarrier"> <g> <polygon style="fill:#000000;" points="296.325,8.171 215.392,8.171 210.555,60.347 256,87.054 301.146,60.192 "/> <polygon style="fill:#000000;" points="109.272,52.244 52.043,109.473 85.518,149.787 136.537,136.537 149.466,85.62 "/> <polygon style="fill:#000000;" points="8.17,215.676 8.17,296.609 60.346,301.445 87.053,256.001 60.192,210.854 "/> <polygon style="fill:#000000;" points="52.244,402.729 109.472,459.957 149.786,426.482 136.536,375.463 85.619,362.535 "/> <polygon style="fill:#000000;" points="215.675,503.83 296.608,503.83 301.445,451.654 256,424.947 210.854,451.809 "/> <polygon style="fill:#000000;" points="402.728,459.757 459.957,402.528 426.482,362.214 375.463,375.464 362.534,426.381 "/> <polygon style="fill:#000000;" points="503.83,296.325 503.83,215.392 451.654,210.556 424.947,256.001 451.808,301.147 "/> <polygon style="fill:#000000;" points="459.756,109.272 402.528,52.044 362.214,85.519 375.464,136.538 426.38,149.466 "/> <path style="fill:#000000;" d="M256,76.256c-99.111,0-179.745,80.633-179.745,179.745S156.889,435.745,256,435.745 s179.745-80.633,179.745-179.745S355.111,76.256,256,76.256z M256,339.337c-45.951,0-83.336-37.385-83.336-83.336 c0-45.953,37.385-83.337,83.336-83.337c45.953,0,83.336,37.385,83.336,83.337S301.953,339.337,256,339.337z"/> </g> <path style="fill:#ffffff;" d="M298.082,126.492c-12.854-4.194-26.537-6.52-40.742-6.651l50.241,32.746L298.082,126.492z"/> <path style="fill:#FFFFFF;" d="M296.688,130.8v53.609l-20.491,9.433c-6.362-2.081-13.149-3.203-20.197-3.203 c-7.048,0-13.835,1.122-20.197,3.203l-21.885-9.433v-57.918c13.258-4.326,27.397-6.66,42.082-6.66c0.447,0,0.893,0,1.34,0.011 C271.284,120.07,284.585,123.959,296.688,130.8z"/> <path style="fill:#ffffff;" d="M257.34,392.16c14.205-0.131,27.888-2.457,40.742-6.651l9.499-26.096L257.34,392.16z"/> <g> <path style="fill:#FFFFFF;" d="M296.688,381.201v-53.609l-20.491-9.433c-6.362,2.081-13.149,3.203-20.197,3.203 c-7.048,0-13.835-1.122-20.197-3.203l-21.885,9.433v57.922c13.258,4.325,27.397,6.656,42.082,6.656c0.447,0,0.893,0,1.34-0.011 C271.284,391.931,284.585,388.042,296.688,381.201z"/> <path style="fill:#FFFFFF;" d="M193.841,213.919h-67.35c-4.325,13.258-6.661,27.397-6.661,42.082 c0,14.685,2.337,28.824,6.661,42.082h67.35v-21.885c-2.081-6.362-3.203-13.149-3.203-20.197c0-7.048,1.122-13.835,3.203-20.197 V213.919z"/> </g> <path style="fill:#ffffff;" d="M385.509,213.919h-39.931v84.164h39.931c4.325-13.258,6.661-27.397,6.661-42.082 C392.17,241.316,389.834,227.176,385.509,213.919z"/> <g> <path style="fill:#ffffff;" d="M298.082,126.492l-1.394,4.308l59.784,92.552l29.037-9.434 C372.055,172.621,339.38,139.935,298.082,126.492z"/> <path style="fill:#ffffff;" d="M356.472,288.649l-59.784,92.552l1.394,4.308c41.298-13.443,73.973-46.129,87.427-87.427 L356.472,288.649z"/> </g> <path style="fill:#FFFFFF;" d="M356.472,223.352c1.972,10.458,3.018,21.395,3.018,32.648c0,11.253-1.046,22.19-3.018,32.648 l-38.313,16.233v-28.684c2.081-6.362,3.203-13.149,3.203-20.197c0-7.048-1.122-13.835-3.203-20.197v-27.62L356.472,223.352z"/> <g> <path style="fill:#ffffff;" d="M356.472,223.352l-38.313,12.451c-6.449-19.826-22.136-35.513-41.962-41.962l20.491-63.041 C326.188,147.457,348.65,181.652,356.472,223.352z"/> <path style="fill:#ffffff;" d="M318.159,276.197l38.313,12.451c-7.822,41.701-30.284,75.896-59.784,92.552l-20.491-63.041 C296.023,311.711,311.71,296.024,318.159,276.197z"/> <path style="fill:#ffffff;" d="M193.841,276.197l-67.35,21.885c13.443,41.298,46.129,73.989,87.427,87.432l21.885-67.355 C215.977,311.711,200.29,296.024,193.841,276.197z"/> <path style="fill:#ffffff;" d="M213.918,126.49c-41.298,13.443-73.984,46.131-87.427,87.429l67.35,21.885 c6.449-19.826,22.136-35.513,41.962-41.962L213.918,126.49z"/> </g> <path style="fill:#000000;" d="M256,54.47c111.126,0,201.532,90.406,201.532,201.532S367.126,457.534,256,457.534l-21.787-16.34 L256,424.853c93.108,0,168.851-75.743,168.851-168.851S349.108,87.151,256,87.151l-21.787-16.34L256,54.47z"/> <path style="fill:#000000;" d="M256,54.47v32.681c-93.108,0-168.851,75.743-168.851,168.851S162.892,424.853,256,424.853v32.681 c-111.126,0-201.532-90.406-201.532-201.532S144.874,54.47,256,54.47z"/> <path d="M504.584,207.257l-45.661-4.233c-4.878-18.674-12.319-36.538-22.181-53.248l29.299-35.284 c2.696-3.246,2.475-8.012-0.509-10.996l-57.229-57.229c-2.985-2.984-7.749-3.205-10.997-0.509l-35.343,29.346 c-16.72-9.835-34.593-17.249-53.279-22.1l-4.227-45.589c-0.389-4.202-3.914-7.415-8.134-7.415h-80.933 c-4.22,0-7.745,3.214-8.135,7.416l-4.233,45.661c-18.677,4.878-36.539,12.32-53.248,22.18L114.491,45.96 c-3.246-2.696-8.011-2.476-10.996,0.509l-57.229,57.227c-2.984,2.984-3.205,7.75-0.509,10.996l29.347,35.343 c-9.835,16.718-17.249,34.592-22.101,53.279l-45.589,4.226C3.214,207.93,0,211.455,0,215.676v80.65c0,4.22,3.214,7.745,7.416,8.135 l45.589,4.226c4.852,18.688,12.266,36.561,22.101,53.28l-29.347,35.343c-2.696,3.246-2.475,8.012,0.509,10.996l57.229,57.229 c2.985,2.985,7.751,3.206,10.996,0.509l35.284-29.298c16.71,9.862,34.571,17.302,53.248,22.179l4.233,45.661 c0.389,4.202,3.915,7.416,8.135,7.416h80.933c4.22,0,7.745-3.214,8.135-7.416l4.227-45.589c18.686-4.851,36.56-12.265,53.279-22.101 l35.343,29.346c3.247,2.698,8.011,2.474,10.997-0.509l57.229-57.229c2.984-2.984,3.204-7.75,0.509-10.996l-29.299-35.284 c9.861-16.708,17.302-34.571,22.179-53.248l45.661-4.233c4.202-0.389,7.416-3.915,7.416-8.135v-81.217 C512,211.172,508.786,207.646,504.584,207.257z M495.66,289.161l-44.034,4.082c-3.509,0.325-6.414,2.863-7.206,6.297 c-4.829,20.908-13.107,40.782-24.605,59.068c-1.88,2.99-1.625,6.851,0.631,9.568l28.268,34.043l-46.695,46.695l-34.095-28.309 c-2.714-2.253-6.568-2.512-9.557-0.637c-18.299,11.467-38.184,19.714-59.103,24.514c-3.439,0.789-5.983,3.696-6.309,7.209 l-4.076,43.97H222.84l-4.082-44.034c-0.325-3.509-2.863-6.413-6.297-7.206c-20.907-4.829-40.78-13.107-59.068-24.604 c-2.989-1.879-6.85-1.625-9.568,0.632l-34.043,28.267l-46.695-46.695l28.31-34.094c2.254-2.715,2.511-6.569,0.637-9.558 c-11.466-18.297-19.714-38.183-24.514-59.104c-0.789-3.439-3.696-5.983-7.209-6.308l-43.971-4.076v-65.754l43.971-4.075 c3.513-0.326,6.421-2.869,7.209-6.308c4.8-20.921,13.048-40.806,24.514-59.103c1.874-2.989,1.617-6.843-0.637-9.558l-28.31-34.094 l46.695-46.695l34.043,28.267c2.718,2.257,6.578,2.512,9.568,0.631c18.286-11.497,38.159-19.775,59.068-24.604 c3.433-0.793,5.971-3.698,6.297-7.206l4.082-44.035h66.037l4.076,43.971c0.326,3.513,2.869,6.421,6.308,7.209 c20.919,4.799,40.804,13.047,59.103,24.514c2.989,1.873,6.844,1.617,9.557-0.637l34.095-28.309l46.695,46.695l-28.268,34.043 c-2.256,2.717-2.511,6.578-0.631,9.568c11.499,18.289,19.776,38.163,24.605,59.068c0.793,3.434,3.698,5.972,7.206,6.297 l44.034,4.081V289.161z"/> <path d="M256,78.979c-97.61,0-177.021,79.411-177.021,177.021c0,40.904,14.34,80.832,40.378,112.425 c2.869,3.482,8.019,3.979,11.501,1.109c3.482-2.869,3.978-8.019,1.109-11.501c-23.634-28.675-36.648-64.911-36.648-102.033 C95.319,167.401,167.4,95.32,256,95.32s160.681,72.081,160.681,160.681S344.6,416.681,256,416.681 c-37.123,0-73.359-13.015-102.033-36.648c-3.483-2.87-8.631-2.373-11.501,1.109c-2.869,3.482-2.374,8.631,1.109,11.501 c31.593,26.038,71.52,40.378,112.425,40.378c97.61,0,177.021-79.411,177.021-177.021S353.61,78.979,256,78.979z"/> <path d="M256,400.341c79.59,0,144.34-64.751,144.34-144.34c0-79.591-64.751-144.342-144.34-144.342s-144.34,64.752-144.34,144.342 S176.41,400.341,256,400.341z M137.038,303.245l52.009-16.899c7.365,16.186,20.421,29.242,36.607,36.607l-16.899,52.009 C176.116,361.954,150.048,335.885,137.038,303.245z M128,256.001c0-10.94,1.382-21.564,3.977-31.707l51.991,16.893 c-0.983,4.787-1.5,9.741-1.5,14.814s0.516,10.028,1.5,14.814l-51.991,16.893C129.382,277.564,128,266.942,128,256.001z M256,198.809 c31.535,0,57.191,25.657,57.191,57.193S287.535,313.193,256,313.193c-31.536,0-57.191-25.656-57.191-57.191 C198.809,224.465,224.464,198.809,256,198.809z M384,256.001c0,10.94-1.382,21.564-3.977,31.707l-51.991-16.893 c0.983-4.787,1.5-9.741,1.5-14.814c0-5.073-0.516-10.028-1.5-14.814l51.991-16.893C382.618,234.438,384,245.06,384,256.001z M224.293,380.024l16.893-51.991c4.787,0.983,9.741,1.5,14.814,1.5c5.073,0,10.028-0.516,14.814-1.5l16.893,51.991 c-10.143,2.595-20.767,3.977-31.707,3.977C245.06,384.001,234.436,382.619,224.293,380.024z M303.243,374.963l-16.899-52.009 c16.186-7.365,29.243-20.422,36.608-36.608l52.009,16.899C361.952,335.885,335.884,361.954,303.243,374.963z M374.962,208.757 l-52.009,16.899c-7.365-16.186-20.422-29.243-36.608-36.608l16.899-52.009C335.884,150.047,361.953,176.117,374.962,208.757z M287.707,131.977l-16.893,51.991c-4.787-0.983-9.741-1.5-14.814-1.5s-10.028,0.516-14.814,1.5l-16.893-51.991 c10.143-2.595,20.766-3.977,31.707-3.977C266.94,128.001,277.564,129.383,287.707,131.977z M208.757,137.039l16.899,52.009 c-16.186,7.365-29.242,20.422-36.607,36.608l-52.009-16.899C150.047,176.117,176.116,150.047,208.757,137.039z"/> </g>
</svg>